<svg xmlns="http://www.w3.org/2000/svg" width="520" height="440" viewBox="0 0 520 440">
  <g transform="translate(10 10) translate(-532 -70)">
    <path d=" M 737.00 70.00  C 729.24 70.86 731.03 82.55 725.92 87.92 C 720.82 93.29 719.27 99.66 710.07 101.07 C 700.88 102.49 696.84 109.18 706.92 111.08 C 717.01 112.97 717.68 118.41 724.23 122.77 C 730.78 127.14 727.43 140.12 733.33 142.67 C 739.22 145.21 741.05 129.60 744.23 125.23 C 747.41 120.86 753.71 113.60 760.32 112.32 C 766.93 111.04 778.14 104.80 763.07 101.93 C 748.00 99.05 740.23 83.47 737.00 70.00 Z" fill="#E4A64A" fill-opacity="1.00"/>
    <path d=" M 616.00 123.00  C 616.18 121.69 615.86 120.31 616.00 119.00 C 623.24 118.37 630.49 117.59 638.00 118.00 C 631.33 116.92 615.09 114.26 616.00 123.00 Z" fill="#F5D1A2" fill-opacity="1.00"/>
    <path d=" M 616.00 123.00  C 616.75 130.23 619.02 139.25 621.02 145.98 C 623.03 152.70 622.49 162.17 627.00 167.00 C 631.31 168.80 641.57 164.36 647.22 166.78 C 652.88 169.20 660.16 168.90 666.00 171.00 C 666.52 170.97 671.77 168.77 675.00 172.00 C 675.21 169.34 676.20 167.57 675.00 165.00 C 680.45 164.18 682.43 159.71 686.00 156.00 C 692.11 158.52 698.15 153.03 703.00 150.00 C 698.68 144.95 689.92 140.47 688.00 136.00 C 673.81 125.56 655.84 118.97 638.00 118.00 C 630.49 117.59 623.24 118.37 616.00 119.00 C 615.86 120.31 616.18 121.69 616.00 123.00 Z" fill="#E99B4E" fill-opacity="1.00"/>
    <path d=" M 747.00 173.00  C 747.27 172.73 751.91 170.74 752.00 168.00 C 760.44 170.24 762.65 180.73 770.00 184.00 C 767.38 185.07 769.03 187.03 770.00 189.00 C 765.46 192.64 759.85 196.56 759.00 202.00 C 763.02 197.98 767.17 194.38 771.25 190.25 C 775.32 186.12 781.01 182.98 785.70 179.70 C 790.38 176.41 796.60 173.92 801.69 171.69 C 806.79 169.47 816.43 167.72 821.07 166.07 C 825.71 164.43 842.04 164.37 841.00 167.00 C 845.25 162.62 847.40 147.95 848.02 142.02 C 848.65 136.10 857.51 120.09 850.00 118.00 C 842.49 115.91 826.82 118.27 819.02 119.02 C 811.23 119.78 802.69 123.53 795.70 126.69 C 788.70 129.86 781.64 133.90 775.75 138.75 C 769.87 143.61 765.38 149.64 759.75 154.75 C 754.12 159.86 750.89 166.77 747.00 173.00 Z" fill="#E57A46" fill-opacity="1.00"/>
    <path d=" M 666.00 171.00  C 696.43 181.96 719.34 210.98 735.00 238.00 C 741.70 225.20 749.93 213.35 759.00 202.00 C 759.85 196.56 765.46 192.64 770.00 189.00 C 769.03 187.03 767.38 185.07 770.00 184.00 C 762.65 180.73 760.44 170.24 752.00 168.00 C 751.91 170.74 747.27 172.73 747.00 173.00 C 741.11 179.50 739.60 189.47 734.00 196.00 C 724.89 172.33 708.86 151.35 688.00 136.00 C 689.92 140.47 698.68 144.95 703.00 150.00 C 698.15 153.03 692.11 158.52 686.00 156.00 C 682.43 159.71 680.45 164.18 675.00 165.00 C 676.20 167.57 675.21 169.34 675.00 172.00 C 671.77 168.77 666.52 170.97 666.00 171.00 Z" fill="#E78A48" fill-opacity="1.00"/>
    <path d=" M 732.00 322.00  C 699.72 256.56 651.05 180.39 574.00 165.00 C 587.84 241.85 654.58 310.76 732.00 322.00 Z" fill="#A43327" fill-opacity="1.00"/>
    <path d=" M 759.00 202.00  C 749.93 213.35 741.70 225.20 735.00 238.00 C 719.34 210.98 696.43 181.96 666.00 171.00 C 660.16 168.90 652.88 169.20 647.22 166.78 C 641.57 164.36 631.31 168.80 627.00 167.00 C 673.24 194.20 706.74 240.49 735.00 284.00 C 741.74 272.52 749.70 261.14 757.08 250.08 C 764.46 239.02 773.38 229.10 781.75 218.75 C 790.12 208.40 800.49 200.34 809.25 190.25 C 818.02 180.16 832.14 176.13 841.00 167.00 C 842.04 164.37 825.71 164.43 821.07 166.07 C 816.43 167.72 806.79 169.47 801.69 171.69 C 796.60 173.92 790.38 176.41 785.70 179.70 C 781.01 182.98 775.32 186.12 771.25 190.25 C 767.17 194.38 763.02 197.98 759.00 202.00 Z" fill="#CF5735" fill-opacity="1.00"/>
    <path d=" M 894.00 165.00  C 817.16 180.00 768.56 256.26 738.00 322.00 C 814.98 309.08 880.67 241.45 894.00 165.00 Z" fill="#A33326" fill-opacity="1.00"/>
  </g>
</svg>