<svg xmlns="http://www.w3.org/2000/svg" width="740" height="560" viewBox="0 0 740 560">
  <defs>
    <linearGradient id="gradRed" x1="0%" y1="20%" x2="100%" y2="80%"><stop offset="0%" stop-color="#A33A2C"/><stop offset="100%" stop-color="#C64030"/></linearGradient>
    <linearGradient id="gradOrange" x1="0%" y1="10%" x2="100%" y2="90%"><stop offset="0%" stop-color="#D95A31"/><stop offset="100%" stop-color="#E07A47"/></linearGradient>
  </defs>
  <g transform="translate(-380,-40)">
    <path d=" M 737.00 70.00  C 729.24 70.86 731.03 82.55 725.92 87.92 C 720.82 93.29 719.27 99.66 710.07 101.07 C 700.88 102.49 696.84 109.18 706.92 111.08 C 717.01 112.97 717.68 118.41 724.23 122.77 C 730.78 127.14 727.43 140.12 733.33 142.67 C 739.22 145.21 741.05 129.60 744.23 125.23 C 747.41 120.86 753.71 113.60 760.32 112.32 C 766.93 111.04 778.14 104.80 763.07 101.93 C 748.00 99.05 740.23 83.47 737.00 70.00 Z" fill="#E4A64A" fill-opacity="1.00"/>
    <path d=" M 616.00 123.00  C 616.18 121.69 615.86 120.31 616.00 119.00 C 623.24 118.37 630.49 117.59 638.00 118.00 C 631.33 116.92 615.09 114.26 616.00 123.00 Z" fill="#F5D1A2" fill-opacity="1.00"/>
    <path d=" M 616.00 123.00  C 616.75 130.23 619.02 139.25 621.02 145.98 C 623.03 152.70 622.49 162.17 627.00 167.00 C 631.31 168.80 641.57 164.36 647.22 166.78 C 652.88 169.20 660.16 168.90 666.00 171.00 C 666.52 170.97 671.77 168.77 675.00 172.00 C 675.21 169.34 676.20 167.57 675.00 165.00 C 680.45 164.18 682.43 159.71 686.00 156.00 C 692.11 158.52 698.15 153.03 703.00 150.00 C 698.68 144.95 689.92 140.47 688.00 136.00 C 673.81 125.56 655.84 118.97 638.00 118.00 C 630.49 117.59 623.24 118.37 616.00 119.00 C 615.86 120.31 616.18 121.69 616.00 123.00 Z" fill="#E99B4E" fill-opacity="1.00"/>
    <path d=" M 747.00 173.00  C 747.27 172.73 751.91 170.74 752.00 168.00 C 760.44 170.24 762.65 180.73 770.00 184.00 C 767.38 185.07 769.03 187.03 770.00 189.00 C 765.46 192.64 759.85 196.56 759.00 202.00 C 763.02 197.98 767.17 194.38 771.25 190.25 C 775.32 186.12 781.01 182.98 785.70 179.70 C 790.38 176.41 796.60 173.92 801.69 171.69 C 806.79 169.47 816.43 167.72 821.07 166.07 C 825.71 164.43 842.04 164.37 841.00 167.00 C 845.25 162.62 847.40 147.95 848.02 142.02 C 848.65 136.10 857.51 120.09 850.00 118.00 C 842.49 115.91 826.82 118.27 819.02 119.02 C 811.23 119.78 802.69 123.53 795.70 126.69 C 788.70 129.86 781.64 133.90 775.75 138.75 C 769.87 143.61 765.38 149.64 759.75 154.75 C 754.12 159.86 750.89 166.77 747.00 173.00 Z" fill="#E57A46" fill-opacity="1.00"/>
    <path d=" M 666.00 171.00  C 696.43 181.96 719.34 210.98 735.00 238.00 C 741.70 225.20 749.93 213.35 759.00 202.00 C 759.85 196.56 765.46 192.64 770.00 189.00 C 769.03 187.03 767.38 185.07 770.00 184.00 C 762.65 180.73 760.44 170.24 752.00 168.00 C 751.91 170.74 747.27 172.73 747.00 173.00 C 741.11 179.50 739.60 189.47 734.00 196.00 C 724.89 172.33 708.86 151.35 688.00 136.00 C 689.92 140.47 698.68 144.95 703.00 150.00 C 698.15 153.03 692.11 158.52 686.00 156.00 C 682.43 159.71 680.45 164.18 675.00 165.00 C 676.20 167.57 675.21 169.34 675.00 172.00 C 671.77 168.77 666.52 170.97 666.00 171.00 Z" fill="#E78A48" fill-opacity="1.00"/>
    <path d=" M 732.00 322.00  C 699.72 256.56 651.05 180.39 574.00 165.00 C 587.84 241.85 654.58 310.76 732.00 322.00 Z" fill="#A43327" fill-opacity="1.00"/>
    <path d=" M 759.00 202.00  C 749.93 213.35 741.70 225.20 735.00 238.00 C 719.34 210.98 696.43 181.96 666.00 171.00 C 660.16 168.90 652.88 169.20 647.22 166.78 C 641.57 164.36 631.31 168.80 627.00 167.00 C 673.24 194.20 706.74 240.49 735.00 284.00 C 741.74 272.52 749.70 261.14 757.08 250.08 C 764.46 239.02 773.38 229.10 781.75 218.75 C 790.12 208.40 800.49 200.34 809.25 190.25 C 818.02 180.16 832.14 176.13 841.00 167.00 C 842.04 164.37 825.71 164.43 821.07 166.07 C 816.43 167.72 806.79 169.47 801.69 171.69 C 796.60 173.92 790.38 176.41 785.70 179.70 C 781.01 182.98 775.32 186.12 771.25 190.25 C 767.17 194.38 763.02 197.98 759.00 202.00 Z" fill="#CF5735" fill-opacity="1.00"/>
    <path d=" M 894.00 165.00  C 817.16 180.00 768.56 256.26 738.00 322.00 C 814.98 309.08 880.67 241.45 894.00 165.00 Z" fill="#A33326" fill-opacity="1.00"/>
    <path d="M 189.645 585 L 244.899 585 L 293.362 435.863 L 248.102 435.863 L 231.606 493.711 C 226.289 512.321 221.773 531.348 217.577 550.855 C 213.092 531.348 208.384 512.321 202.778 493.711 L 185.449 435.863 L 139.613 435.863 L 189.645 585 Z M 307.568 585 L 349.209 585 L 349.209 530.547 C 349.209 520.745 348.12 504.313 346.903 487.209 C 354.11 503.929 359.619 515.332 368.94 530.547 L 402.061 585 L 446.104 585 L 446.104 435.863 L 404.463 435.863 L 404.463 490.508 C 404.463 501.527 405.776 519.72 406.769 534.935 C 400.651 518.119 394.661 506.716 387.134 494.416 L 351.611 435.863 L 307.568 435.863 L 307.568 585 Z" transform="matrix(0.9461572625139305 0 0 0.9085578261283317 287.88030665235544 -57.17071081350782)" fill="url(#gradRed)" fill-rule="evenodd"/>
    <path d="M 523.625 586.654 C 555.624 586.654 578.592 567.124 578.592 533.655 L 578.592 516.75 L 524.439 516.75 L 524.439 540.375 L 546.594 540.375 C 546.279 551.033 538.719 557.753 523.966 557.753 C 506.72 557.753 497.874 545.126 497.874 523.628 C 497.874 502.47 507.455 490.001 524.124 490.001 C 534.545 490.001 541.58 494.752 543.654 503.126 L 577.122 503.126 C 574.576 478.609 552.264 461.126 523.467 461.126 C 490.498 461.126 463.749 483.859 463.749 524.126 C 463.749 562.766 487.951 586.654 523.625 586.654 Z M 637.317 586.654 C 667.111 586.654 684.646 567.596 684.646 539.378 C 684.646 511.264 667.111 492.127 637.317 492.127 C 607.392 492.127 589.831 511.264 589.831 539.378 C 589.831 567.596 607.392 586.654 637.317 586.654 Z M 637.317 562.031 C 628.628 562.031 623.457 553.579 623.457 539.22 C 623.457 524.783 628.628 516.75 637.317 516.75 C 645.848 516.75 651.02 524.783 651.02 539.22 C 651.02 553.579 645.848 562.031 637.317 562.031 Z M 723.365 585 L 762.083 585 L 794.896 493.283 L 760.771 493.283 L 749.221 535.125 C 746.911 543.499 745.021 551.846 743.315 561.034 C 741.503 551.846 739.613 543.499 737.225 535.125 L 725.333 493.283 L 690.736 493.283 L 723.365 585 Z" transform="matrix(0.9461572625139305 0 0 0.9085578261283317 293.88030665235544 -57.17071081350782)" fill="url(#gradOrange)" fill-rule="evenodd"/>
    <path d="M 156.239 649.774 L 167.818 649.774 L 167.818 682 L 173.523 682 L 173.523 649.774 L 185.054 649.774 L 185.054 644.898 L 156.239 644.898 L 156.239 649.774 Z M 190.984 682 L 196.458 682 L 196.458 665.09 C 196.458 661.433 199.248 658.843 203.081 658.843 C 204.228 658.843 205.551 659.042 205.949 659.138 L 205.949 653.91 C 205.376 653.838 204.332 653.759 203.63 653.759 C 200.371 653.759 197.606 655.6 196.586 658.644 L 196.283 658.644 L 196.283 654.157 L 190.984 654.157 L 190.984 682 Z M 222.405 682.574 C 230.254 682.574 235.434 676.82 235.434 668.23 C 235.434 663.473 233.888 659.616 231.17 657.074 L 231.593 657.074 C 234.732 657.074 236.406 655.576 236.406 652.739 L 236.406 647.981 L 231.648 647.981 L 231.648 653.209 C 231.648 653.838 231.298 654.157 230.652 654.157 C 228.11 654.157 225.17 653.838 222.532 653.807 C 222.484 653.807 222.461 653.807 222.405 653.807 C 222.405 653.807 222.405 653.807 222.381 653.807 C 222.381 653.807 222.381 653.807 222.357 653.807 C 214.54 653.838 209.408 659.56 209.408 668.23 C 209.408 676.82 214.563 682.574 222.405 682.574 Z M 222.405 677.944 C 217.376 677.944 214.986 673.505 214.986 668.23 C 214.986 662.875 217.376 658.444 222.405 658.444 C 227.489 658.444 229.879 662.899 229.879 668.23 C 229.879 673.505 227.489 677.944 222.405 677.944 Z M 222.461 692.758 C 224.373 692.758 225.919 691.315 225.919 689.499 C 225.919 687.706 224.373 686.255 222.461 686.255 C 220.588 686.255 219.018 687.706 219.018 689.499 C 219.018 691.315 220.588 692.758 222.461 692.758 Z M 260.458 644.898 L 254.983 644.898 L 254.983 682 L 260.458 682 L 260.458 644.898 Z M 267.458 692.009 C 268.127 692.312 269.57 692.606 271.291 692.606 C 275.769 692.606 278.535 690.319 280.232 685.857 L 292.337 654.157 L 286.456 654.157 L 280.854 669.975 C 279.985 672.39 279.355 674.804 278.734 677.195 C 278.136 674.804 277.562 672.414 276.718 669.975 L 271.219 654.157 L 265.291 654.157 L 275.873 682.128 L 275.275 684.168 C 274.255 687.753 272.263 688.447 269.426 687.706 L 268.797 687.554 L 267.458 692.009 Z M 276.622 650.547 L 280.806 650.547 L 285.762 643.105 L 280.104 643.105 L 276.622 650.547 Z M 308.342 682 L 314.494 682 L 317.809 672.214 L 332.399 672.214 L 335.81 682 L 341.962 682 L 328.519 644.898 L 321.546 644.898 L 308.342 682 Z M 319.426 667.481 L 321.49 661.353 C 322.415 658.516 323.562 654.659 325.004 649.352 C 326.471 654.603 327.594 658.389 328.59 661.353 L 330.734 667.481 L 319.426 667.481 Z M 353.019 644.898 L 347.345 644.898 L 347.345 682 L 353.019 682 L 353.019 644.898 Z M 386.113 682.574 C 391.97 682.574 396.496 679.41 397.843 674.159 L 392.663 672.908 C 391.914 675.92 389.603 677.944 386.137 677.944 C 381.108 677.944 378.694 673.529 378.694 668.23 C 378.694 662.851 381.108 658.444 386.137 658.444 C 389.555 658.444 391.818 660.413 392.567 663.273 L 397.771 662.03 C 396.4 656.875 391.89 653.807 386.113 653.807 C 378.272 653.807 373.116 659.56 373.116 668.23 C 373.116 676.82 378.272 682.574 386.113 682.574 Z M 409.324 665.513 C 409.324 661.106 412.065 658.588 415.802 658.588 C 419.436 658.588 421.675 660.978 421.675 664.995 L 421.675 682 L 427.182 682 L 427.182 664.317 C 427.182 657.448 423.373 653.807 417.691 653.807 C 413.882 653.807 411.021 655.48 409.276 659.162 L 409.276 644.898 L 403.849 644.898 L 403.849 682 L 409.324 682 L 409.324 665.513 Z M 446.227 682.574 C 454.076 682.574 459.256 676.82 459.256 668.23 C 459.256 659.56 454.076 653.807 446.227 653.807 C 438.386 653.807 433.23 659.56 433.23 668.23 C 433.23 676.82 438.386 682.574 446.227 682.574 Z M 446.227 677.944 C 441.199 677.944 438.808 673.505 438.808 668.23 C 438.808 662.875 441.199 658.444 446.227 658.444 C 451.311 658.444 453.702 662.899 453.702 668.23 C 453.702 673.505 451.311 677.944 446.227 677.944 Z M 489.289 682.55 C 494.317 682.55 496.334 679.41 497.306 677.641 L 497.752 677.641 L 497.752 682 L 503.083 682 L 503.083 644.898 L 497.601 644.898 L 497.601 658.691 L 497.306 658.691 C 496.357 656.97 494.469 653.807 489.289 653.807 C 482.587 653.807 477.631 659.09 477.631 668.15 C 477.631 677.147 482.516 682.55 489.289 682.55 Z M 490.484 677.888 C 485.727 677.888 483.233 673.633 483.233 668.102 C 483.233 662.628 485.647 658.468 490.484 658.468 C 495.186 658.468 497.704 662.325 497.704 668.102 C 497.704 673.904 495.138 677.888 490.484 677.888 Z M 510.456 682 L 515.931 682 L 515.931 654.157 L 510.456 654.157 L 510.456 682 Z M 513.213 649.902 C 515.11 649.902 516.68 648.46 516.68 646.667 C 516.68 644.842 515.11 643.399 513.213 643.399 C 511.325 643.399 509.755 644.842 509.755 646.667 C 509.755 648.46 511.325 649.902 513.213 649.902 Z M 513.293 692.758 C 515.182 692.758 516.751 691.315 516.751 689.499 C 516.751 687.706 515.182 686.255 513.293 686.255 C 511.396 686.255 509.858 687.706 509.858 689.499 C 509.858 691.315 511.396 692.758 513.293 692.758 Z M 535.004 682.574 C 540.861 682.574 545.387 679.41 546.734 674.159 L 541.554 672.908 C 540.805 675.92 538.494 677.944 535.028 677.944 C 529.999 677.944 527.585 673.529 527.585 668.23 C 527.585 662.851 529.999 658.444 535.028 658.444 C 538.446 658.444 540.709 660.413 541.459 663.273 L 546.662 662.03 C 545.292 656.875 540.781 653.807 535.004 653.807 C 527.163 653.807 522.007 659.56 522.007 668.23 C 522.007 676.82 527.163 682.574 535.004 682.574 Z M 558.215 665.513 C 558.215 661.106 560.956 658.588 564.693 658.588 C 568.327 658.588 570.566 660.978 570.566 664.995 L 570.566 682 L 576.073 682 L 576.073 664.317 C 576.073 657.448 572.264 653.807 566.582 653.807 C 562.773 653.807 559.912 655.48 558.167 659.162 L 558.167 644.898 L 552.74 644.898 L 552.74 682 L 558.215 682 L 558.215 665.513 Z M 604.985 682 L 610.962 682 L 621.465 654.157 L 615.592 654.157 L 610.085 669.975 C 609.241 672.438 608.643 674.876 608.022 677.314 C 607.4 674.876 606.747 672.438 605.902 669.975 L 600.403 654.157 L 594.475 654.157 L 604.985 682 Z M 635.81 682.351 C 639.643 682.351 642.631 680.629 644.376 676.597 L 644.4 682 L 649.659 682 L 649.659 654.157 L 644.153 654.157 L 644.153 670.645 C 644.153 675.051 641.388 677.569 637.682 677.569 C 634.04 677.569 631.801 675.179 631.801 671.17 L 631.801 654.157 L 626.327 654.157 L 626.327 671.84 C 626.327 678.709 630.136 682.351 635.81 682.351 Z M 638.128 692.758 C 640.017 692.758 641.587 691.315 641.587 689.499 C 641.587 687.706 640.017 686.255 638.128 686.255 C 636.256 686.255 634.694 687.706 634.694 689.499 C 634.694 691.315 636.256 692.758 638.128 692.758 Z M 682.301 682.574 C 688.158 682.574 692.685 679.41 694.031 674.159 L 688.852 672.908 C 688.102 675.92 685.792 677.944 682.325 677.944 C 677.297 677.944 674.882 673.529 674.882 668.23 C 674.882 662.851 677.297 658.444 682.325 658.444 C 685.744 658.444 688.007 660.413 688.756 663.273 L 693.96 662.03 C 692.589 656.875 688.079 653.807 682.301 653.807 C 674.46 653.807 669.304 659.56 669.304 668.23 C 669.304 676.82 674.46 682.574 682.301 682.574 Z M 711.736 682.574 C 719.585 682.574 724.765 676.82 724.765 668.23 C 724.765 659.56 719.585 653.807 711.736 653.807 C 703.895 653.807 698.739 659.56 698.739 668.23 C 698.739 676.82 703.895 682.574 711.736 682.574 Z M 711.736 677.944 C 706.708 677.944 704.317 673.505 704.317 668.23 C 704.317 662.875 706.708 658.444 711.736 658.444 C 716.82 658.444 719.21 662.899 719.21 668.23 C 719.21 673.505 716.82 677.944 711.736 677.944 Z M 708.15 650.197 L 711.736 645.87 L 715.274 650.197 L 720.406 650.197 L 720.406 649.974 L 714.103 643.105 L 709.345 643.105 L 703.05 649.974 L 703.05 650.197 L 708.15 650.197 Z M 736.316 665.513 C 736.316 661.106 739.058 658.588 742.795 658.588 C 746.429 658.588 748.668 660.978 748.668 664.995 L 748.668 682 L 754.15 682 L 754.15 664.317 C 754.15 657.448 750.365 653.807 744.684 653.807 C 740.747 653.807 737.838 655.576 736.093 659.512 L 736.069 654.157 L 730.842 654.157 L 730.842 682 L 736.316 682 L 736.316 665.513 Z M 773.172 693.005 C 780.296 693.005 785.747 689.722 785.747 682.398 L 785.747 654.157 L 780.392 654.157 L 780.392 658.691 L 779.993 658.691 C 779.021 656.946 777.061 653.807 771.929 653.807 C 765.227 653.807 760.223 659.09 760.223 667.983 C 760.223 676.868 765.307 681.578 771.849 681.578 C 776.933 681.578 778.854 678.765 779.818 676.948 L 780.296 676.948 L 780.296 682.375 C 780.296 686.654 777.379 688.598 773.148 688.598 C 768.662 688.598 766.924 686.383 765.928 684.789 L 761.346 686.957 C 762.916 690.319 766.725 693.005 773.172 693.005 Z M 773.124 677.02 C 768.343 677.02 765.825 673.33 765.825 667.903 C 765.825 662.604 768.263 658.468 773.124 658.468 C 777.826 658.468 780.32 662.325 780.32 667.903 C 780.32 673.609 777.754 677.02 773.124 677.02 Z" transform="matrix(0.8674354856839928 0 0 0.8272827204468775 334.4330317486737 -30.3072272399579)" fill="#4B4B4B" fill-rule="evenodd"/>
  </g>
</svg>
